inDegrees=no
num_controls=7
num_derivatives=13
num_iterations=114
num_multipliers=7
num_parameters=0
num_slacks=7
num_states=26
objective=0.497084
objective_accelerations=0.032250
objective_balance=0.003259
objective_effort=0.035016
objective_height=0.421070
objective_ligament=0.005488
solver_duration=1326.357153
status=Solve_Succeeded
success=true
DataType=double
version=3
OpenSimVersion=4.5
endheader
time	/jointset/ground_pelvis/pelvis_tilt/value	/jointset/ground_pelvis/pelvis_tx/value	/jointset/ground_pelvis/pelvis_ty/value	/jointset/hip_r/hip_flexion_r/value	/jointset/hip_r/hip_adduction_r/value	/jointset/hip_r/hip_rotation_r/value	/jointset/back/lumbar_extension/value	/jointset/patellofemoral_r/patellar_flexion_r/value	/jointset/knee_r/knee_flexion_r/value	/jointset/knee_r/knee_adduction_r/value	/jointset/knee_r/knee_rotation_r/value	/jointset/ankle_r/ankle_angle_r/value	/jointset/subtalar_r/subtalar_angle_r/value	/jointset/ground_pelvis/pelvis_tilt/speed	/jointset/ground_pelvis/pelvis_tx/speed	/jointset/ground_pelvis/pelvis_ty/speed	/jointset/hip_r/hip_flexion_r/speed	/jointset/hip_r/hip_adduction_r/speed	/jointset/hip_r/hip_rotation_r/speed	/jointset/back/lumbar_extension/speed	/jointset/patellofemoral_r/patellar_flexion_r/speed	/jointset/knee_r/knee_flexion_r/speed	/jointset/knee_r/knee_adduction_r/speed	/jointset/knee_r/knee_rotation_r/speed	/jointset/ankle_r/ankle_angle_r/speed	/jointset/subtalar_r/subtalar_angle_r/speed	/forceset/tau_hip_flexion_r	/forceset/tau_hip_adduction_r	/forceset/tau_hip_rotation_r	/forceset/tau_knee_flexion_r	/forceset/tau_ankle_angle_r	/forceset/tau_subtalar_angle_r	/forceset/tau_lumbar_extension	lambda_cid13_p0	lambda_cid14_p0	lambda_cid14_p1	lambda_cid14_p2	lambda_cid14_p3	lambda_cid14_p4	lambda_cid14_p5	/jointset/ground_pelvis/pelvis_tilt/accel	/jointset/ground_pelvis/pelvis_tx/accel	/jointset/ground_pelvis/pelvis_ty/accel	/jointset/hip_r/hip_flexion_r/accel	/jointset/hip_r/hip_adduction_r/accel	/jointset/hip_r/hip_rotation_r/accel	/jointset/back/lumbar_extension/accel	/jointset/patellofemoral_r/patellar_flexion_r/accel	/jointset/knee_r/knee_flexion_r/accel	/jointset/knee_r/knee_adduction_r/accel	/jointset/knee_r/knee_rotation_r/accel	/jointset/ankle_r/ankle_angle_r/accel	/jointset/subtalar_r/subtalar_angle_r/accel	gamma_cid13_p0	gamma_cid14_p0	gamma_cid14_p1	gamma_cid14_p2	gamma_cid14_p3	gamma_cid14_p4	gamma_cid14_p5
0	-0.006515415316206591	0.09626031204878709	0.9427240692811145	0.1762555222360518	-0.2321527377195117	-0.2616406592518347	-0.038598046466844	0.07317863873451236	0.07317863873451017	0.1745328460896994	0.1745329245460105	0.03247278518263602	-0.003452027627231329	0	0	0	0	0	0	0	0	0	0	0	0	0	0.2142911218367912	-0.1507285978335501	-0.0430731786737576	-0.3983277363034568	0.3989758133841797	-0.1516134307980465	-0.1116459644179616	-39.07624801341232	78.2300613335717	-42.31170171760613	-4.030031608932641	-35.38849506198673	-679.4645385689607	50.61060094584544	-1.214601973351186	-0.8460335037862222	-0.4849685501347181	7.324891363672455	0.20731823872962	2.231252369391595	-4.824897414066708	8.469072322910158	8.469072322909744	-2.69956686652596	0.1740287096565136	3.146991841490568	0.9281559172808613	8.393971536073073e-08	5.19844161415169e-08	-5.624392098564263e-07	1.760159933514294e-07	2.06236238314592e-08	5.439953616827382e-08	-2.762915091611414e-07
0.01	-0.006571992113161603	0.09622048935130219	0.9427008420741569	0.1766083141981206	-0.2321410931907255	-0.2615210913876286	-0.03884036176078274	0.07358963458735723	0.0735896345873556	0.1743977436033045	0.1745301329280178	0.03262859449893533	-0.00340471494825784	-0.01138895126788615	-0.007742090090292183	-0.004634100248422874	0.07012105443322696	0.002286806847105485	0.02379556121379667	-0.04807859489465022	0.08179315159169577	0.08179315159169596	-0.02681146038848116	-0.0005544791781178492	0.03121793146394346	0.009433209775893833	0.2175925112782926	-0.1678573884489149	-0.04440506758226902	-0.4091816815576403	0.4147624718437827	-0.141123978200933	-0.1130780738998212	-39.08994249836162	83.72422845862633	-36.88666983305111	-4.789243736799834	-41.14344729524496	-680.5113674227416	62.16105041457632	-1.11207709012285	-0.7049252259687363	-0.4509187108252217	6.790115789260007	0.2329881669984864	2.436049558586282	-4.741670943178205	7.973516942878561	7.973516942878701	-2.640650616303038	-0.1695578280797294	3.117619240279245	0.9464360882863113	1.133773239164846e-07	5.431413265410728e-08	-7.570618695190519e-07	1.829298632928353e-07	5.123780502360198e-08	-1.017216417253217e-07	-3.513631559994289e-07
0.02	-0.00674466550011912	0.09610992006005076	0.9426316162749894	0.1776491973657438	-0.2321078553416087	-0.2611670995990411	-0.03955192908687078	0.0748063780292295	0.07480637802923099	0.1740007835147692	0.1745219221989108	0.03309826821816088	-0.003263963655416877	-0.02321931800038884	-0.01414931875330776	-0.009199718442009397	0.1376182411109436	0.004318664066110202	0.04688478487609454	-0.09385040642985966	0.1611495178065626	0.161149517806559	-0.05237152042871561	-0.001083822217586904	0.06277288058520715	0.01868772277349416	0.2208939007197913	-0.1849861790642807	-0.04573695649074122	-0.4200356268118364	0.4305491303033822	-0.130634525603822	-0.1145101833816794	-39.13026858798408	89.29363330166233	-31.47133147265711	-5.520788984848351	-47.07563832703807	-680.416224889583	73.48423496178542	-1.30288506627448	-0.5790612183309185	-0.4712721391674475	6.80011781257039	0.1563283131094667	2.089984859091778	-4.363540742178546	7.981715247544379	7.981715247543168	-2.449286796876617	0.1790559373863302	3.214395372954598	0.8924165616221577	1.428149324722385e-07	5.664384916669765e-08	-9.516845291816776e-07	1.898437332342412e-07	8.185198621574477e-08	-2.578428196189172e-07	-4.264348028377164e-07
0.03	-0.007036351438899598	0.09593931825896856	0.9425168426466458	0.1793540401754486	-0.2320559112207148	-0.2605884033446966	-0.04071030225732343	0.07680603480906228	0.07680603480906334	0.1733551483025387	0.1745112611287273	0.03388237915289993	-0.003032518645205708	-0.03500335063900187	-0.02001065064678811	-0.0137590582540015	0.2030670774011417	0.006020919004605569	0.06874243706132452	-0.1375413022820575	0.2384499986317712	0.238449998631755	-0.07653777643173756	-0.001060335111679372	0.0938205890140958	0.02749949430265452	0.2119676422712994	-0.1918647227019643	-0.04299905531170098	-0.4061559354167814	0.4065791552013722	-0.1156202553100122	-0.1078522145073331	-39.19611772892388	82.18192271422171	-26.28830566315848	-6.241490593270893	-42.17641184599196	-679.7827564046962	82.43829084693095	-1.098969303628799	-0.5955940583605254	-0.4489247556657594	6.374789710577034	0.1696838304061666	2.216904297063471	-4.329425199928622	7.554409888872093	7.554409888870956	-2.367761402635151	-0.08772850556046902	3.015678916027553	0.8601608622945603	1.662456519208123e-07	6.4661374081748e-08	-1.102717480450499e-06	2.21861197933101e-07	9.667098146116708e-08	-3.369982510917629e-07	-5.001672746922984e-07
0.04	-0.00744243909226146	0.09570891816225076	0.9423563436494923	0.1817048759827213	-0.2319884426011984	-0.2597944807887335	-0.04229709662493562	0.07956873547491898	0.07956873547491901	0.1724743572501493	0.1745004902090502	0.03497011123956248	-0.002716035236956632	-0.04609966091657641	-0.02610897788043016	-0.0183447922040051	0.2668168406246413	0.007423563790565483	0.08993004519954863	-0.1795346458617824	0.3137582950114997	0.3137582950114767	-0.09940268845956532	-0.001105792115908855	0.1234971109698467	0.03569540238107798	0.203041383822803	-0.1987432663396513	-0.04026115413265793	-0.3922762440217313	0.3826091800993595	-0.1006059850162066	-0.1011942456329878	-39.28630911426899	75.13899250676589	-21.10460269273387	-6.949317175942757	-37.4507841030393	-678.1282997106985	91.20540764159819	-1.16534059406677	-0.6264602863632744	-0.4765509667697449	6.46030319923069	0.09640628260237906	1.955976049690595	-4.024030287683953	7.583278358448334	7.583278358448294	-2.18901800183778	0.1652671153589358	2.94015807832704	0.7692438714747779	1.89552517985733e-07	7.279617339684908e-08	-1.25285167484522e-06	2.543962625238671e-07	1.111643027695436e-07	-4.145667599579951e-07	-5.738721346915463e-07
0.05	-0.007956897805087576	0.09541696261157158	0.9421496972525689	0.1846851174113417	-0.2319082440753972	-0.258793494940724	-0.0442949271195154	0.08307510967785951	0.0830751096778584	0.1713711585112269	0.1744902648883524	0.03634865193785199	-0.002320209951070335	-0.05672988262321103	-0.03225826247988659	-0.02299907285405896	0.3289162042562898	0.008576178702626917	0.1101315228612058	-0.2197385029679418	0.3871619542056138	0.3871619542056033	-0.121017502056422	-0.000950671220221152	0.1520460972149595	0.04339423744064352	0.1967696437500582	-0.1831675462283421	-0.03861755894857583	-0.3849914249683961	0.3738050437052879	-0.1091610901339846	-0.09626721082526317	-39.39938817560912	72.05017925357669	-25.3904265084954	-6.23232930795321	-35.3058314688038	-677.1696634731777	81.26655440743424	-1.00251145199611	-0.605559730474199	-0.4621380052952204	6.037479947761951	0.1185615969919098	2.031964554915378	-3.974620909120215	7.165682895433972	7.165682895435896	-2.114946891191595	-0.06098597870513005	2.78756647491958	0.758721680114986	1.837700002561036e-07	6.570827988377857e-08	-1.205879159103169e-06	2.366403780050672e-07	1.144386317900785e-07	-4.7888943838874e-07	-5.54190306120744e-07
0.06	-0.008575788433587373	0.09506423477815033	0.9418960537709105	0.1882768978768034	-0.2318177449001783	-0.2575945481299953	-0.04668600768256486	0.08730487511184781	0.08730487511184698	0.1700583648658219	0.1744812666655378	0.03800774201405577	-0.001849692643204929	-0.06698604405121611	-0.03826343442884254	-0.0277442091509887	0.3891246479931387	0.009483693674042889	0.1295222377433466	-0.2581846595556306	0.4584365412213691	0.458436541221372	-0.1413216697565583	-0.0008603725396859491	0.1796069865527196	0.05063380677691074	0.190497903677305	-0.1675918261170315	-0.03697396376448462	-0.3777066059150654	0.3650009073112159	-0.1177161952517612	-0.09134017601754599	-39.53357503839074	69.02419210336758	-29.69159901646846	-5.482796557611711	-33.30880006851149	-675.2459499575548	71.11916723110222	-1.090528538340846	-0.5976377562631944	-0.4947220961449204	6.082119220270765	0.04738629447329028	1.793823493787328	-3.672490183989807	7.157463922776595	7.157463922776699	-1.926888822493734	0.1523026723284406	2.742538696856484	0.6773907268151089	1.767626663667037e-07	5.79794308832061e-08	-1.150607413460621e-06	2.167669798395488e-07	1.172405821879675e-07	-5.426543976432537e-07	-5.305764064522555e-07
0.07000000000000001	-0.009295748874622796	0.09465216058753449	0.9415943487777514	0.1924620588683121	-0.2317195013347074	-0.2562074075393241	-0.04945250130946038	0.09223761798707564	0.09223761798707523	0.1685493246583243	0.174474596976986	0.03993769657707249	-0.001309110221209747	-0.07694069482303348	-0.04412707440178074	-0.03261913568424054	0.44759695015529	0.01013776465572388	0.1477784705063135	-0.2948363096490896	0.5277639962379896	0.5277639962379828	-0.1602869521067347	-0.0005039192509850092	0.2062255799166472	0.05742303695185164	0.1839656092448652	-0.1610707450749734	-0.03510272790422609	-0.3708169556324251	0.3542363517446397	-0.1172858894500388	-0.08621068448508828	-39.68699821594974	65.67883441547703	-30.19251418964788	-5.286372610521351	-31.27861964005233	-673.8351066159697	68.57523078102633	-0.938107029788485	-0.5770542418898812	-0.4873391662137219	5.683208857073443	0.07021137636080994	1.822473382284531	-3.619838995840862	6.768145385591426	6.768145385589941	-1.851587850065326	-0.02715951731718009	2.597802716876386	0.6705871236420325	1.603344494068776e-07	4.758812096173888e-08	-1.028304031532249e-06	1.885386407389923e-07	1.135107654857495e-07	-5.81246182335377e-07	-4.803334322254906e-07
0.08	-0.01011329056001416	0.09418218457237311	0.9412432022724001	0.1972226275100184	-0.23161555828415	-0.2546415145780769	-0.0525771787520543	0.09785318723136671	0.09785318723136747	0.1668565836455691	0.1744705965864323	0.04212909368587146	-0.0007024559053035459	-0.08650229292230152	-0.04984379933795323	-0.03763251158942623	0.5042061780328864	0.01062359069121624	0.1652727118586068	-0.3298214226952236	0.5950018150340763	0.5950018150340604	-0.1780618308083407	-0.0003265129406077732	0.2318954957091944	0.06384818555913062	0.1774333148124189	-0.1545496640329139	-0.03323149204396823	-0.3639273053497858	0.3434717961780638	-0.1168555836483147	-0.08108119295263706	-39.85754400150706	62.39022849859454	-30.70008702501387	-5.069931877294042	-29.38430130246983	-671.5651702241961	65.85794620051294	-1.011918003830966	-0.5682547489100693	-0.5224119705316908	5.709504363359799	0.01373730523557053	1.64142521165262	-3.339182774524801	6.739536678669831	6.739536678670037	-1.688808092779661	0.1164932766637078	2.552803182580376	0.604574413282724	1.432984335392822e-07	3.702503936795588e-08	-9.016760279080174e-07	1.59771273191014e-07	1.093595444544923e-07	-6.182138912492815e-07	-4.283724531885144e-07
